M48
; DRILL file {KiCad 7.0.5} date Tue Mar 26 12:09:41 2024
; FORMAT={-:-/ absolute / metric / decimal}
; #@! TF.CreationDate,2024-03-26T12:09:41+04:00
; #@! TF.GenerationSoftware,Kicad,Pcbnew,7.0.5
; #@! TF.FileFunction,Plated,1,2,PTH
FMAT,2
METRIC
; #@! TA.AperFunction,Plated,PTH,ComponentDrill
T1C0.800
; #@! TA.AperFunction,Plated,PTH,ComponentDrill
T2C1.000
; #@! TA.AperFunction,Plated,PTH,ComponentDrill
T3C1.200
; #@! TA.AperFunction,Plated,PTH,ComponentDrill
T4C1.500
; #@! TA.AperFunction,Plated,PTH,ComponentDrill
T5C1.520
%
G90
G05
T1
X81.28Y125.73
X81.28Y128.27
X81.28Y130.81
X81.28Y133.35
X88.9Y125.73
X88.9Y128.27
X88.9Y130.81
X88.9Y133.35
T2
X76.2Y44.45
X76.2Y46.99
X76.2Y49.53
X76.2Y69.85
X76.2Y72.39
X76.2Y74.93
X76.2Y95.25
X76.2Y97.79
X76.2Y100.33
X76.2Y127.0
X76.2Y134.5
X81.4Y139.7
X88.9Y44.45
X88.9Y51.95
X88.9Y63.5
X88.9Y71.0
X88.9Y75.05
X88.9Y82.55
X88.9Y95.25
X88.9Y102.75
X88.9Y139.7
X88.9Y146.05
X88.9Y153.55
X107.95Y120.65
X107.95Y128.15
X107.95Y139.7
X107.95Y147.2
X107.95Y170.3
X107.95Y177.8
X120.65Y121.92
X120.65Y124.46
X120.65Y127.0
X120.65Y140.97
X120.65Y143.51
X120.65Y146.05
X120.65Y166.37
X120.65Y168.91
X120.65Y171.45
T3
X73.66Y120.65
X76.2Y114.3
X88.9Y120.65
X91.44Y114.3
X92.71Y158.75
X94.9Y137.62
X94.9Y152.86
X95.25Y38.1
X95.25Y53.34
X95.25Y63.5
X95.25Y69.85
X95.25Y85.09
X95.25Y92.71
X95.25Y107.95
X95.25Y116.9
X95.25Y132.14
X95.25Y165.1
X95.25Y180.34
X101.25Y137.62
X101.25Y152.86
X101.6Y38.1
X101.6Y53.34
X101.6Y69.85
X101.6Y85.09
X101.6Y95.25
X101.6Y110.49
X101.6Y116.9
X101.6Y132.14
X101.6Y165.1
X101.6Y180.34
X107.95Y158.75
X110.49Y63.5
T4
X114.3Y95.25
X114.3Y107.95
T5
X88.9Y190.5
X93.98Y190.5
X95.25Y25.4
X100.33Y25.4
T0
M30
